<?xml version="1.0" standalone="no"?>
<!DOCTYPE svg PUBLIC "-//W3C//DTD SVG 20010904//EN"
 "http://www.w3.org/TR/2001/REC-SVG-20010904/DTD/svg10.dtd">
<svg version="1.0" xmlns="http://www.w3.org/2000/svg"
 width="200.000000pt" height="200.000000pt" viewBox="0 0 200.000000 200.000000"
 preserveAspectRatio="xMidYMid meet">
<metadata>
Created by potrace 1.11, written by Peter Selinger 2001-2013
</metadata>
<g transform="translate(0.000000,200.000000) scale(0.100000,-0.100000)"
fill="#000000" stroke="none">
<path d="M280 1540 c0 -5 15 -16 33 -23 78 -34 83 -60 81 -483 -2 -384 -9
-435 -81 -541 -47 -71 -116 -134 -196 -179 -81 -45 -57 -58 45 -23 128 43 229
143 271 269 28 85 30 116 34 553 l4 437 -95 0 c-57 0 -96 -4 -96 -10z"/>
<path d="M529 1138 c-1 -450 -2 -478 -28 -555 l-18 -52 38 34 c33 30 90 55
126 55 9 0 5 14 -10 43 -22 41 -22 48 -22 419 l0 377 29 30 c16 16 42 33 57
36 59 13 26 25 -71 25 l-100 0 -1 -412z"/>
<path d="M830 1540 c0 -5 11 -12 24 -16 33 -8 71 -52 87 -99 20 -64 17 -613
-5 -687 -16 -56 -45 -90 -87 -103 -10 -4 -19 -11 -19 -17 0 -7 30 -8 88 -4 48
3 93 5 100 6 9 0 12 100 12 465 l0 465 -100 0 c-59 0 -100 -4 -100 -10z"/>
<path d="M1090 1087 l0 -465 53 -4 c28 -3 115 -4 192 -4 172 2 227 19 308 99
90 89 127 197 128 372 0 218 -69 354 -219 427 l-67 33 -197 3 -198 4 0 -465z
m393 373 c141 -53 214 -201 204 -415 -9 -196 -85 -315 -227 -357 -49 -14 -173
-17 -232 -5 -36 8 -36 8 -48 75 -14 88 -10 686 6 702 32 32 211 32 297 0z"/>
<path d="M1750 1408 c52 -75 72 -149 78 -290 7 -188 -23 -309 -97 -387 -17
-19 -30 -35 -29 -37 10 -10 112 85 147 136 52 78 62 113 68 230 4 80 2 105
-17 159 -12 35 -34 83 -50 105 -26 38 -113 126 -125 126 -2 0 9 -19 25 -42z"/>
</g>
</svg>
